<?xml version="1.0" standalone="no"?><!DOCTYPE svg PUBLIC "-//W3C//DTD SVG 1.1//EN" "http://www.w3.org/Graphics/SVG/1.1/DTD/svg11.dtd"><svg t="1608344050434" class="icon" viewBox="0 0 1024 1024" version="1.1" xmlns="http://www.w3.org/2000/svg" p-id="7460" xmlns:xlink="http://www.w3.org/1999/xlink" width="200" height="200"><defs><style type="text/css"></style></defs><path d="M625.33065 959.461101l84.052324-197.823507 201.196325 188.646497 46.022173-49.14428-201.261816-188.646497 192.080713-96.663551-501.92862-153.114236 179.838901 496.745574z" p-id="7461" fill="#4988fe"></path><path d="M729.740628 61.235666c-40.685631 0-73.785493 33.100886-73.785494 73.786517 0 9.360182 1.77032 18.310018 4.964059 26.556842L469.726709 315.215148c-12.278651-9.120728-27.473725-14.525831-43.908022-14.525831a73.446779 73.446779 0 0 0-23.209608 3.76065l-66.587558-83.477227a73.328076 73.328076 0 0 0 11.112082-38.878472c0-40.686654-33.100886-73.786517-73.78754-73.786517-40.685631 0-73.785493 33.100886-73.785493 73.786517 0 19.294438 7.452739 36.873816 19.618826 50.03558l-84.8372 173.98252c-40.290635 0.463558-72.927963 33.365922-72.927963 73.765027 0 40.686654 33.099862 73.785493 73.785494 73.785494 40.686654 0 73.78754-33.099862 73.78754-73.785494 0-21.708418-9.426697-41.252543-24.397667-54.766324l82.653465-169.502486c2.01489 0.165776 4.046153 0.272199 6.101975 0.2722a73.491805 73.491805 0 0 0 22.287609-3.448542l66.995857 83.986833a73.340355 73.340355 0 0 0-10.596336 38.056757c0 40.685631 33.099862 73.785493 73.785494 73.785494s73.78754-33.099862 73.78754-73.785494c0-4.810562-0.477884-9.510608-1.360998-14.06739l198.431352-159.452595a73.321936 73.321936 0 0 0 33.064047 7.852852c40.686654 0 73.78754-33.100886 73.78754-73.786517s-33.099862-73.786517-73.786517-73.786517z m-456.394565 93.120864c15.295358 0 27.738761 12.443403 27.738761 27.737738 0 15.294334-12.443403 27.736715-27.738761 27.736715-15.294334 0-27.736715-12.443403-27.736714-27.736715 0-15.294334 12.44238-27.737738 27.736714-27.737738z m-138.146336 353.25758c-15.294334 0-27.736715-12.443403-27.736715-27.736715 0-15.295358 12.443403-27.737738 27.736715-27.737738 15.295358 0 27.738761 12.443403 27.738761 27.737738 0.001023 15.293311-12.443403 27.736715-27.738761 27.736715z m290.61896-105.400539c-15.293311 0-27.736715-12.443403-27.736715-27.736714 0-15.295358 12.443403-27.737738 27.736715-27.737738 15.295358 0 27.738761 12.443403 27.738761 27.737738 0.001023 15.293311-12.443403 27.736715-27.738761 27.736714z m303.921941-239.45365c-15.294334 0-27.736715-12.443403-27.736715-27.737738s12.44238-27.737738 27.736715-27.737738c15.295358 0 27.738761 12.443403 27.738761 27.737738s-12.443403 27.737738-27.738761 27.737738z" p-id="7462" fill="#4988fe"></path></svg>