<?xml version="1.0" standalone="no"?><!DOCTYPE svg PUBLIC "-//W3C//DTD SVG 1.1//EN" "http://www.w3.org/Graphics/SVG/1.1/DTD/svg11.dtd"><svg t="1608341001943" class="icon" viewBox="0 0 1024 1024" version="1.1" xmlns="http://www.w3.org/2000/svg" p-id="5126" xmlns:xlink="http://www.w3.org/1999/xlink" width="200" height="200"><defs><style type="text/css"></style></defs><path d="M618.467335 957.414489l86.312808-203.1447 206.607568 193.72005 47.260374-50.466392-206.675107-193.72005 197.247387-99.263771-515.429099-157.232021 184.676069 510.106884zM483.549529 246.919692c0 24.879644-20.070104 45.01524-44.886303 45.01524-24.879644 0-45.014216-20.135596-45.014216-45.01524V131.303488c-0.064468-24.879644 20.070104-44.950771 45.014216-44.950771 24.816199 0 44.886303 20.072151 44.886303 44.950771v115.616204z m-175.699627 37.127596c17.570167 17.504676 17.570167 45.976124 0 63.547315-17.504676 17.504676-46.040592 17.504676-63.547315 0l-81.758072-81.758072c-17.506722-17.505699-17.506722-45.978171 0-63.482847 17.570167-17.570167 46.041616-17.570167 63.546291 0l81.759096 81.693604z m245.276262-16.993023c-17.506722 17.569144-17.506722 46.040592 0 63.61076 17.503653 17.506722 46.040592 17.506722 63.611784 0l81.628112-81.758072c17.570167-17.505699 17.570167-46.041616 0-63.546292-17.504676-17.570167-45.976124-17.570167-63.482847 0l-81.757049 81.693604zM221.474672 423.772586c24.816199 0 44.950771 20.072151 44.950772 44.952818 0 24.815175-20.071128 44.950771-44.950772 44.950772l-115.615181-0.064469c-24.880667 0-44.950771-20.071128-44.950771-44.951794 0-24.815175 20.070104-44.887326 44.950771-44.887327h115.615181z m54.05615 156.336628c17.505699-17.505699 45.977147-17.505699 63.548338 0.12689 17.568121 17.443277 17.568121 45.978171 0.064469 63.48387l-81.758072 81.69258c-17.506722 17.571191-46.042639 17.571191-63.547315 0-17.570167-17.568121-17.570167-46.039569 0-63.545268l81.69258-81.758072z" p-id="5127" fill="#006600"></path></svg>