<?xml version="1.0" standalone="no"?><!DOCTYPE svg PUBLIC "-//W3C//DTD SVG 1.1//EN" "http://www.w3.org/Graphics/SVG/1.1/DTD/svg11.dtd"><svg t="1628859340373" class="icon" viewBox="0 0 1024 1024" version="1.1" xmlns="http://www.w3.org/2000/svg" p-id="1353" xmlns:xlink="http://www.w3.org/1999/xlink" width="200" height="200"><defs><style type="text/css"></style></defs><path d="M864 96a32 32 0 0 1 32 32v768a32 32 0 0 1-32 32H160a32 32 0 0 1-32-32V128a32 32 0 0 1 32-32h704z m0 160.672H160V896h704V256.672zM464 704a16 16 0 0 1 2.88 31.744L464 736h-224a16 16 0 0 1-2.88-31.744L240 704h224z m30.24-366.784a16 16 0 0 1 9.504 18.144l-0.864 2.752-72.096 173.952a16 16 0 0 1-30.4-9.504l0.832-2.752 72.096-173.92a16 16 0 0 1 20.928-8.64z m-140.704 3.456a16 16 0 0 1 1.856 20.416l-1.856 2.24-74.912 74.88 74.88 74.912a16 16 0 0 1 1.888 20.416l-1.856 2.24a16 16 0 0 1-20.416 1.824l-2.24-1.856-97.504-97.536 97.536-97.536a16 16 0 0 1 22.624 0z m224.96-1.824l2.176 1.824 97.536 97.536-97.536 97.536-2.208 1.856a16 16 0 0 1-18.176 0l-2.24-1.856-1.856-2.24a16 16 0 0 1 0-18.176l1.856-2.208 74.912-74.912-74.88-74.88-1.888-2.24a16 16 0 0 1 22.272-22.24zM864 128H160v96.672h704V128z" p-id="1354" fill="#4988fe"></path><path d="M784 608a16 16 0 0 1 2.88 31.744L784 640h-544a16 16 0 0 1-2.88-31.744L240 608h544z" p-id="1355" fill="#4988fe"></path></svg>