<?xml version="1.0" standalone="no"?><!DOCTYPE svg PUBLIC "-//W3C//DTD SVG 1.1//EN" "http://www.w3.org/Graphics/SVG/1.1/DTD/svg11.dtd"><svg t="1627769651188" class="icon" viewBox="0 0 1024 1024" version="1.1" xmlns="http://www.w3.org/2000/svg" p-id="2338" xmlns:xlink="http://www.w3.org/1999/xlink" width="200" height="200"><defs><style type="text/css"></style></defs><path d="M312.832 910.336h284.672c15.872 0 28.672 12.8 28.672 28.672 0 15.872-12.8 28.672-28.672 28.672H312.832c-15.872 0-28.672-12.8-28.672-28.672 0.512-15.872 12.8-28.672 28.672-28.672z" p-id="2339" fill="#4988fe"></path><path d="M568.832 284.672V227.328c204.8 0 398.336 164.864 398.336 369.664s-164.864 369.664-369.664 369.664v-56.832c170.496 0 312.832-142.336 312.832-312.832s-171.008-312.32-341.504-312.32z m0-57.344c204.8 0 398.336 164.864 398.336 369.664s-164.864 369.664-369.664 369.664v-56.832c170.496 0 312.832-142.336 312.832-312.832s-170.496-312.832-341.504-312.832V227.328z m-455.168 0h455.168v56.832H113.664V227.328z" p-id="2340" fill="#4988fe"></path><path d="M115.712 233.984L276.48 394.752c11.264 11.264 11.264 29.184 0 40.448s-29.184 11.264-40.448 0L75.264 273.92c-11.264-11.264-11.264-29.184 0-39.936 10.752-11.264 29.184-11.264 40.448 0z" p-id="2341" fill="#4988fe"></path><path d="M276.992 110.08L115.712 271.36c-11.264 11.264-29.184 11.264-39.936 0-10.752-11.264-10.752-28.672 0-39.936l161.28-160.768c11.264-11.264 28.672-10.752 39.936 0s11.264 28.16 0 39.424z" p-id="2342" fill="#4988fe"></path></svg>